<?xml version="1.0" encoding="UTF-8"?>
<svg width="30px" height="30px" viewBox="0 0 30 30" version="1.1" xmlns="http://www.w3.org/2000/svg" xmlns:xlink="http://www.w3.org/1999/xlink">
    <title>bookmark-svgrepo-com</title>
    <g id="Page-1" stroke="none" stroke-width="1" fill="none" fill-rule="evenodd">
        <g id="Desktop-HD" transform="translate(-972.000000, -249.000000)" fill="#000000" fill-rule="nonzero">
            <g id="bookmark-svgrepo-com" transform="translate(972.000000, 249.000000)">
                <path d="M30,24.7786166 L30,5.21526219 C30,2.33829831 27.6612245,0 24.7836735,0 C24.2020408,0 23.7306122,0.471332381 23.7306122,1.04672516 C23.7306122,1.62823913 24.2020408,2.09957152 24.7836735,2.09957152 C26.4979592,2.09957152 27.9,3.49520506 27.9,5.21526219 L27.9,24.7847378 C27.9,26.5047949 26.5040816,27.9004285 24.7836735,27.9004285 L5.21632653,27.9004285 C3.49591837,27.9004285 2.1,26.5047949 2.1,24.7847378 L2.1,5.21526219 C2.1,3.49520506 3.49591837,2.09957152 5.21632653,2.09957152 L5.24693878,2.09957152 C5.82857143,2.09957152 6.28163265,1.62823913 6.28163265,1.04672516 C6.28163265,0.465211181 5.79795918,0 5.21632653,0 C2.33877551,0 0,2.33829831 0,5.21526219 L0,24.7847378 C0,27.6617017 2.33877551,30 5.21632653,30 L24.7897959,30 C27.6612245,29.9938788 30,27.6555805 30,24.7786166 Z" id="Path"></path>
                <path d="M9.84366548,24.4186047 C10.2729092,24.4186047 10.6897111,24.2588453 11.0194201,23.9700495 L14.7146489,20.6826933 L18.4098777,23.9700495 C18.7333658,24.2588453 19.1501677,24.4186047 19.5856324,24.4186047 C20.5560965,24.4186047 21.3461538,23.6382416 21.3461538,22.6796854 L21.3461538,1.05072506 C21.3461538,0.466988916 20.8671427,0 20.2823759,0 L9.146922,0 C8.55593422,0 8.07692308,0.473133507 8.07692308,1.05072506 L8.07692308,22.6796854 C8.07692308,23.6382416 8.87320134,24.4186047 9.84366548,24.4186047 Z M10.2107,2.10759471 L19.1999351,2.10759471 L19.1999351,21.8501656 L15.8841826,18.8946173 C15.5606946,18.6058216 15.1438927,18.4460622 14.708428,18.4460622 C14.2729633,18.4460622 13.8561614,18.6058216 13.5326734,18.8946173 L10.2169209,21.8501656 L10.2169209,2.10759471 L10.2107,2.10759471 Z" id="Shape"></path>
            </g>
        </g>
    </g>
</svg>