<?xml version="1.0" encoding="UTF-8"?>
<svg width="18px" height="18px" viewBox="0 0 18 18" version="1.1" xmlns="http://www.w3.org/2000/svg" xmlns:xlink="http://www.w3.org/1999/xlink">
    <title>clock-svgrepo-com</title>
    <g id="Page-1" stroke="none" stroke-width="1" fill="none" fill-rule="evenodd">
        <g id="Desktop-HD" transform="translate(-468.000000, -295.000000)" fill="#000000" fill-rule="nonzero">
            <g id="clock-svgrepo-com" transform="translate(468.000000, 295.000000)">
                <path d="M9,0 C4.02244898,0 0,4.02244898 0,9 C0,13.977551 4.02244898,18 9,18 C13.977551,18 18,13.977551 18,9 C18,4.02244898 13.977551,0 9,0 Z M9,16.504898 C4.86367347,16.504898 1.49510204,13.1363265 1.49510204,9 C1.49510204,4.86367347 4.86367347,1.49510204 9,1.49510204 C13.1363265,1.49510204 16.504898,4.86367347 16.504898,9 C16.504898,13.1363265 13.1363265,16.504898 9,16.504898 Z" id="Shape"></path>
                <path d="M10.2850627,8.4186633 L9.42987457,8.4186633 L9.42987457,4.79066835 C9.42987457,4.3556116 9.10832383,4 8.71493729,4 C8.32155074,4 8,4.3556116 8,4.79066835 L8,9.20933165 C8,9.6443884 8.32155074,10 8.71493729,10 L10.2850627,10 C10.6784493,10 11,9.6443884 11,9.20933165 C11,8.77427491 10.6750285,8.4186633 10.2850627,8.4186633 Z" id="Path"></path>
            </g>
        </g>
    </g>
</svg>