<?xml version="1.0" encoding="UTF-8"?>
<svg width="30px" height="35px" viewBox="0 0 30 35" version="1.1" xmlns="http://www.w3.org/2000/svg" xmlns:xlink="http://www.w3.org/1999/xlink">
    <title>cutlery-svgrepo-com</title>
    <g id="Page-1" stroke="none" stroke-width="1" fill="none" fill-rule="evenodd">
        <g id="Desktop-HD" transform="translate(-519.000000, -324.000000)" fill="#000000" fill-rule="nonzero">
            <g id="cutlery-svgrepo-com" transform="translate(519.000000, 324.000000)">
                <path d="M13.7623693,2.2653848 C13.3198015,0.787623747 9.7062392,1.41508264 10.1468989,2.88540504 C10.6016791,4.40455353 10.0345714,5.57693384 8.60179128,6.46941479 C8.59530351,5.05472408 8.58436334,3.64042904 8.57991095,2.22534265 C8.5759674,0.721229749 4.8261619,0.720834075 4.82997824,2.22534265 C4.83392179,3.58202764 4.84677012,4.9386335 4.85580212,6.29500195 C3.85579462,5.07980977 3.55481284,3.70128361 3.89268588,2.10877726 C4.20791531,0.620966106 0.454166263,0.639879295 0.142753166,2.10877726 C-0.514801695,5.20777055 1.10726873,7.97329029 4.84358984,9.99921728 C4.82425373,11.5254088 4.78481825,13.5181783 4.68139552,15.0439741 C4.51029641,15.1739924 4.38359402,15.3419162 4.33449049,15.5615941 C3.08514897,21.1399561 0.785551524,28.1389439 2.08450542,33.7936709 C2.17889615,34.2019267 2.5237658,34.4450285 2.96239013,34.5596155 C3.18004855,34.6986551 3.44884589,34.8039834 3.76916377,34.8417306 C4.80847954,34.9634398 5.83889052,34.9996043 6.89309001,35 C6.92540166,35 6.95504188,34.9948562 6.98671747,34.9935901 C7.01839307,34.9944606 7.04803329,35 7.080981,35 C8.12805665,34.9996043 9.17780374,34.9875759 10.2042712,34.8417306 C10.3954697,34.81435 10.5646606,34.7617255 10.7216393,34.6982595 C11.2765347,34.5274868 11.7126148,34.2020059 11.7680789,33.7169894 C12.4328848,27.9075541 10.4800651,20.7422252 8.5136339,15.0951743 C8.49353452,15.0389095 8.46643853,14.9879468 8.43870648,14.9376963 C8.54530949,13.3377513 8.58207354,11.2712282 8.59899263,9.67088749 C8.65649211,9.55899105 8.66552411,9.44345441 8.65127645,9.3272847 C12.958776,7.86305567 14.6744739,5.31119958 13.7623693,2.2653848 Z M8.10884775,32.6596709 C7.76525022,32.66616 7.42216152,32.667347 7.0798361,32.667347 C7.04752444,32.667347 7.01712096,32.6722533 6.98544536,32.6733612 C6.95376976,32.6721742 6.92412955,32.667347 6.89181789,32.667347 C6.51463659,32.667347 6.13732807,32.66616 5.76014677,32.6581674 C5.70709969,32.6569012 5.65417981,32.6536567 5.60113273,32.6516783 C4.97461741,29.2753971 5.74971545,24.4701018 6.66118393,21.0974608 C7.64439955,24.456095 8.31416668,29.2420023 8.10884775,32.6596709 Z" id="Shape"></path>
                <path d="M27.6060215,1.20124659 C27.6202964,1.12342445 27.6197113,1.04528724 27.6041494,0.966677431 C27.5881194,0.412706682 27.0266017,0.0995277113 26.3873912,0.0302912135 C26.0611751,-0.0250822312 25.6970486,-0.00995890063 25.3208704,0.121031197 C16.8950631,3.05330321 17.362156,11.7654444 23.9484926,15.6548184 C24.0952197,15.74162 24.2502543,15.7994353 24.4065759,15.8428361 C24.3797813,16.7614209 24.3483063,17.6796906 24.3031415,18.5973302 C24.0803598,18.7172929 23.9163157,18.9012934 23.8617903,19.1640612 C22.8481567,24.0618149 20.9829445,28.9767398 22.0364776,33.9412093 C22.1124153,34.2996008 22.3922966,34.512824 22.7488176,34.6135674 C22.9246794,34.735578 23.1427809,34.8284447 23.403005,34.8612119 C24.2467441,34.9679417 25.0821756,35 25.9371474,35 C25.96324,35 25.9876946,34.9951952 26.0130851,34.9944863 C26.0387097,34.995274 26.0630472,35 26.0891398,35 C26.9388463,35 27.7901909,34.9892089 28.6231653,34.8612119 C28.7781999,34.8371879 28.9161514,34.7911878 29.0432212,34.7351842 C29.493699,34.5852112 29.8477629,34.2996008 29.8923427,33.8740208 C30.4235555,28.8542565 28.8970792,23.8717493 27.3273103,18.9891977 C27.6363264,13.0692803 27.4949816,7.12455106 27.6060215,1.20124659 Z M24.4664836,12.9828725 C21.4149352,10.1150321 20.9834126,5.63450917 24.5359859,3.07181354 C24.4991286,6.37303181 24.5145736,9.67905489 24.4664836,12.9828725 Z M26.9232843,32.9458264 C26.6452752,32.9518127 26.3659789,32.9526004 26.0878527,32.9526004 C26.0617601,32.9526004 26.0373056,32.9570901 26.0119151,32.957799 C25.9862905,32.9570113 25.961953,32.9526004 25.9358604,32.9526004 C25.6298865,32.9526004 25.3239126,32.9514188 25.0179387,32.944251 C24.974529,32.9434633 24.9324064,32.9402339 24.8888797,32.9386585 C24.3808343,29.974407 25.0095142,26.984556 25.7492338,24.0243216 C26.5467551,26.9721108 27.0903706,29.9455781 26.9232843,32.9458264 Z" id="Shape"></path>
            </g>
        </g>
    </g>
</svg>