<?xml version="1.0" encoding="UTF-8"?>
<svg width="25px" height="33px" viewBox="0 0 25 33" version="1.1" xmlns="http://www.w3.org/2000/svg" xmlns:xlink="http://www.w3.org/1999/xlink">
    <title>location</title>
    <g id="Page-1" stroke="none" stroke-width="1" fill="none" fill-rule="evenodd">
        <g id="Desktop-HD" transform="translate(-276.000000, -432.000000)" fill="#B5464C" fill-rule="nonzero">
            <g id="location" transform="translate(276.000000, 432.000000)">
                <path d="M12.5000947,0 C5.60753063,0 0,5.58778646 0,12.4559874 C0,15.2951344 2.0036975,19.5019948 5.95549738,24.9595408 C8.84038233,28.9436712 11.7672241,32.1894892 11.7963949,32.2218606 L12.5,33 L13.2036051,32.2218606 C13.2328706,32.1895836 16.1596177,28.9437655 19.0445026,24.9595408 C22.9963025,19.5019004 25,15.2951344 25,12.4559874 C25,5.58778646 19.3925641,0 12.5000947,0 Z M12.5,30.1645336 C8.9902145,26.1353854 1.89430676,17.0415831 1.89430676,12.4559874 C1.89430676,6.62857739 6.65199915,1.88754251 12.5000947,1.88754251 C18.3481903,1.88754251 23.1058827,6.62857739 23.1058827,12.4559874 C23.1058827,17.0388462 16.0097855,26.1344416 12.5,30.1645336 Z" id="Shape"></path>
                <circle id="Oval" cx="12.5" cy="12.5" r="4.5"></circle>
            </g>
        </g>
    </g>
</svg>