<?xml version="1.0" encoding="UTF-8"?>
<svg width="150px" height="150px" viewBox="0 0 150 150" version="1.1" xmlns="http://www.w3.org/2000/svg" xmlns:xlink="http://www.w3.org/1999/xlink">
    <title>DineTimeLogo</title>
    <g id="Page-1" stroke="none" stroke-width="1" fill="none" fill-rule="evenodd">
        <g id="Desktop-HD" transform="translate(-645.000000, -20.000000)">
            <g id="DineTimeLogo" transform="translate(645.000000, 20.000000)">
                <circle id="Oval" stroke="#B5464C" stroke-width="10" cx="75" cy="75" r="70"></circle>
                <g id="fork_knife" transform="translate(36.502525, 21.000000)" fill="#B5464C" fill-rule="nonzero">
                    <path d="M48.7372934,38.1698277 C50.8836009,35.7693641 47.8032461,0 47.8032461,0 L45.537189,0 L45.537189,32.2887469 L42.714378,32.2887469 L42.714378,0 L39.6343513,0 L39.6343513,32.2887469 L38.5575887,32.2887469 L38.4355425,32.2887469 L37.3587799,32.2887469 L37.3587799,0 L34.2787532,0 L34.2787532,32.2887469 L31.4598792,32.2887469 L31.4598792,0 L29.1898851,0 C29.1898851,0 26.1137954,35.7693641 28.2558378,38.1698277 C30.7315388,40.9303425 33.7866313,43.9889445 36.6553737,44.9921015 L36.733457,64.5455952 L30.9454478,110.783577 L30.9605395,110.783577 C30.9566026,110.826108 30.9454478,110.877073 30.9454478,110.92437 C30.9454478,114.830669 33.7872875,118 37.2882424,118 C37.4634378,118 39.5296934,118 39.7048888,118 C43.2022348,118 46.0440745,114.830669 46.0440745,110.92437 C46.0440745,110.86864 46.0365286,110.826108 46.0325917,110.783577 L46.0440745,110.783577 L40.7741056,64.7241542 L40.8790916,44.7790773 C43.5893707,43.6013945 46.421696,40.7514169 48.7372934,38.1698277 Z M42.4974747,110.497988 C42.4974747,112.431722 40.7042996,114 38.498514,114 C36.2885712,114 34.4974747,112.436112 34.4974747,110.497988 C34.4974747,108.563888 36.2885712,107 38.498514,107 C40.7042996,106.999634 42.4974747,108.563888 42.4974747,110.497988 Z" id="Shape"></path>
                    <path d="M60.4930467,111.586047 L54.0294674,70.6737307 L54.0620731,65.9627615 L54.0809925,65.9552708 C54.0809925,65.9552708 54.0809925,64.5890409 54.0902509,62.2620534 L54.2444236,41.9646644 L54.1437887,41.9646644 C54.2001442,23.5441724 54.263343,1.09012673 54.263343,0.144024724 C54.263343,-1.46418584 46.0293943,10.9263308 46.0293943,10.9263308 C46.0293943,10.9263308 38.6399737,23.16736 38.6399737,38.5381793 C38.6399737,44.3050048 38.4974747,53.9558966 38.4974747,57.6452059 C40.1390314,58.3962252 47.7252938,58.6440681 49.0440137,65.818485 L49.0721915,70.518381 L41.9746123,111.586047 L41.9931291,111.586047 C41.9887012,111.627409 41.9746123,111.665513 41.9746123,111.710783 C41.9746123,115.184492 45.4658388,118 49.7569115,118 C49.9722702,118 52.4998167,118 52.7224211,118 C57.0134939,118 60.4974747,115.184492 60.4974747,111.710783 C60.4974747,111.665513 60.4882163,111.627409 60.4789579,111.586047 L60.4930467,111.586047 Z M50.9693014,114.821341 C48.4831157,114.821341 46.4657937,113.480094 46.4657937,111.817576 C46.4657937,110.15945 48.4831157,108.821341 50.9693014,108.821341 C53.4484717,108.821341 55.4657937,110.15945 55.4657937,111.817576 C55.4657937,113.480094 53.4484717,114.821341 50.9693014,114.821341 Z" id="Shape" transform="translate(49.497475, 59.000000) rotate(45.000000) translate(-49.497475, -59.000000) "></path>
                </g>
            </g>
        </g>
    </g>
</svg>