<?xml version="1.0" encoding="UTF-8"?>
<svg width="45px" height="22px" viewBox="0 0 45 22" version="1.1" xmlns="http://www.w3.org/2000/svg" xmlns:xlink="http://www.w3.org/1999/xlink">
    <title>money-svgrepo-com</title>
    <g id="Page-1" stroke="none" stroke-width="1" fill="none" fill-rule="evenodd">
        <g id="Desktop-HD" transform="translate(-519.000000, -695.000000)" fill="#000000" fill-rule="nonzero">
            <g id="money-svgrepo-com" transform="translate(519.000000, 695.000000)">
                <path d="M37.5990783,4 L8.3640553,4 C8.07834101,5.57719978 6.71428571,6.8389596 5,7.1294964 L5,15.8705036 C6.7235023,16.1610404 8.07834101,17.4228002 8.3640553,19 L37.6359447,19 C37.921659,17.4228002 39.2857143,16.1610404 41,15.8705036 L41,7.16270061 C39.2764977,6.87216381 37.921659,5.61870504 37.5990783,4 Z M22.9815668,16.5511898 C19.9032258,16.5511898 17.3963134,14.2933038 17.3963134,11.5207526 C17.3963134,8.74820144 19.9032258,6.49031544 22.9815668,6.49031544 C26.0599078,6.49031544 28.5668203,8.74820144 28.5668203,11.5207526 C28.5668203,14.2933038 26.0599078,16.5511898 22.9815668,16.5511898 Z" id="Shape"></path>
                <path d="M0,0 L0,22 L45,22 L45,0 L0,0 Z M41.8940167,15.9056814 C41.8940167,16.2569625 41.5723913,16.542889 41.1772514,16.542889 C39.6793955,16.542889 38.466408,17.6539176 38.466408,19.0508726 C38.466408,19.4021537 38.1447825,19.6880802 37.7496426,19.6880802 L7.25035736,19.6880802 C6.85521748,19.6880802 6.533592,19.4021537 6.533592,19.0508726 C6.533592,17.6865949 5.32060445,16.542889 3.82274862,16.542889 C3.42760874,16.542889 3.10598326,16.2569625 3.10598326,15.9056814 L3.10598326,6.12699592 C3.10598326,5.77571482 3.42760874,5.48978834 3.82274862,5.48978834 C5.32060445,5.48978834 6.533592,4.37875975 6.533592,2.98180468 C6.533592,2.63052358 6.85521748,2.3445971 7.25035736,2.3445971 L37.7588319,2.3445971 C38.1539718,2.3445971 38.4755973,2.63052358 38.4755973,2.98180468 C38.4755973,4.34608244 39.6885848,5.48978834 41.1864407,5.48978834 C41.5815806,5.48978834 41.903206,5.77571482 41.903206,6.12699592 L41.8940167,15.9056814 Z" id="Shape"></path>
                <path d="M25,12.6640712 C25,11.7842047 24.138756,11.0678532 23.0574163,11.0444939 C23.0382775,11.0444939 23.0191388,11.0444939 23,11.0444939 C22.5311005,11.0444939 22.1483254,10.7330367 22.1483254,10.3515017 C22.1483254,9.96996663 22.5311005,9.65850945 23,9.65850945 C23.2392344,9.65850945 23.4593301,9.73637375 23.6220096,9.87652948 C23.8421053,10.0634038 24.1961722,10.0711902 24.4258373,9.89988877 C24.6555024,9.72080089 24.6650718,9.432703 24.4545455,9.2458287 C24.215311,9.03559511 23.9090909,8.88765295 23.5741627,8.80200222 L23.5741627,8.46718576 C23.5741627,8.21023359 23.3157895,8 23,8 C22.6842105,8 22.4258373,8.21023359 22.4258373,8.46718576 L22.4258373,8.78642937 C21.6028708,8.98887653 21,9.61179088 21,10.3437152 C21,11.2235818 21.861244,11.9399333 22.9425837,11.9632925 C22.9617225,11.9632925 22.9808612,11.9632925 23,11.9632925 C23.4688995,11.9632925 23.8516746,12.2747497 23.8516746,12.6562848 C23.8516746,13.0378198 23.4688995,13.349277 23,13.349277 C22.7607656,13.349277 22.5406699,13.2714127 22.3779904,13.131257 C22.1578947,12.9443826 21.8038278,12.9365962 21.5741627,13.1078977 C21.3444976,13.2869855 21.3349282,13.5750834 21.5454545,13.7619577 C21.784689,13.9721913 22.0909091,14.1201335 22.4258373,14.2057842 L22.4258373,14.5328142 C22.4258373,14.7897664 22.6842105,15 23,15 C23.3157895,15 23.5741627,14.7897664 23.5741627,14.5328142 L23.5741627,14.2135706 C24.3971292,14.0189099 25,13.3959956 25,12.6640712 Z" id="Path"></path>
            </g>
        </g>
    </g>
</svg>