<?xml version="1.0" encoding="UTF-8"?>
<svg width="18px" height="18px" viewBox="0 0 18 18" version="1.1" xmlns="http://www.w3.org/2000/svg" xmlns:xlink="http://www.w3.org/1999/xlink">
    <title>person-svgrepo-com-2</title>
    <g id="Page-1" stroke="none" stroke-width="1" fill="none" fill-rule="evenodd">
        <g id="Desktop-HD" transform="translate(-577.000000, -296.000000)" fill="#000000">
            <g id="person-svgrepo-com-2" transform="translate(577.000000, 296.000000)">
                <path d="M8.99998356,0 C5.70896933,0 3.04106857,2.21315767 3.04106857,4.94321925 C3.04106857,7.1971636 4.8595486,9.09876891 7.34583807,9.69349614 C5.38304545,9.89190673 3.699541,10.4678156 2.43131951,11.5046371 C0.817217931,12.8242789 0,14.7887484 0,17.3522678 C0,17.7100887 0.349595159,18 0.780823344,18 C1.21206797,18 1.56164669,17.7100887 1.56164669,17.3522678 C1.56164669,15.0067955 2.30604257,13.4259199 3.52749685,12.4273214 C4.75125251,11.4268547 6.57818188,10.9091599 8.99990137,10.9091599 C11.4216373,10.9091599 13.2486489,11.4268547 14.4724867,12.427335 C15.6938588,13.4259199 16.4383533,15.0067955 16.4383533,17.3522678 C16.4383533,17.7100887 16.7878334,18 17.2191767,18 C17.6503555,18 18,17.7100887 18,17.3524041 C18,14.7887484 17.1826834,12.8242789 15.5685983,11.5046235 C14.3003768,10.4678293 12.6168395,9.891934 10.6540962,9.69350977 C13.1403199,9.09879618 14.9588986,7.19717723 14.9588986,4.94321925 C14.9588986,2.21315767 12.2909978,0 8.99998356,0 Z M4.60271526,4.94321925 C4.60271526,2.92862218 6.57144214,1.29546436 8.99998356,1.29546436 C11.428525,1.29546436 13.3972519,2.92862218 13.3972519,4.94321925 C13.3972519,6.95781633 11.428525,8.59097415 8.99998356,8.59097415 C6.57144214,8.59097415 4.60271526,6.95781633 4.60271526,4.94321925 Z" id="Shape"></path>
            </g>
        </g>
    </g>
</svg>