<?xml version="1.0" encoding="UTF-8"?>
<svg width="25px" height="25px" viewBox="0 0 25 25" version="1.1" xmlns="http://www.w3.org/2000/svg" xmlns:xlink="http://www.w3.org/1999/xlink">
    <title>comment-svgrepo-com</title>
    <g id="Page-1" stroke="none" stroke-width="1" fill="none" fill-rule="evenodd">
        <g id="Desktop-HD" transform="translate(-529.000000, -486.000000)" fill="#000000" fill-rule="nonzero">
            <g id="comment-svgrepo-com" transform="translate(541.500000, 498.500000) scale(-1, 1) translate(-541.500000, -498.500000) translate(529.000000, 486.000000)">
                <path d="M4.0625,19.7370843 C1.8188432,19.7370843 0,17.822489 0,15.4607161 L0,4.27636827 C0,1.91459529 1.8188432,0 4.0625,0 L20.9375,0 C23.1811567,0 25,1.91459529 25,4.27636827 L25,15.4607161 C25,17.822489 23.1811567,19.7370843 20.9375,19.7370843 L13.7656064,19.7370843 L7.4983519,24.6722495 C6.80731424,25.2163159 5.82812236,25.0676808 5.31126562,24.3402638 C5.10919705,24.0558754 5,23.7102794 5,23.3554265 L4.99901784,19.7370843 L4.0625,19.7370843 Z M13.1418936,17.7633759 L20.9375,17.7633759 C22.1456229,17.7633759 23.125,16.73244 23.125,15.4607161 L23.125,4.27636827 C23.125,3.00464436 22.1456229,1.97370843 20.9375,1.97370843 L4.0625,1.97370843 C2.85437711,1.97370843 1.875,3.00464436 1.875,4.27636827 L1.875,15.4607161 C1.875,16.73244 2.85437711,17.7633759 4.0625,17.7633759 L6.87348216,17.7633759 L6.87374996,18.7499481 L6.87482174,22.6983973 L13.1418936,17.7633759 Z" id="🎨-Color"></path>
            </g>
        </g>
    </g>
</svg>