<?xml version="1.0" encoding="UTF-8"?>
<svg width="24px" height="24px" viewBox="0 0 24 24" version="1.1" xmlns="http://www.w3.org/2000/svg" xmlns:xlink="http://www.w3.org/1999/xlink">
    <title>schedule-svgrepo-com</title>
    <g id="Page-1" stroke="none" stroke-width="1" fill="none" fill-rule="evenodd">
        <g id="Desktop-HD" transform="translate(-318.000000, -292.000000)">
            <g id="schedule-svgrepo-com" transform="translate(318.000000, 292.000000)">
                <rect id="view-box" x="0" y="0" width="24" height="24"></rect>
                <path d="M6,20.75 C4.48190233,20.7483466 3.2516534,19.5180977 3.25,18 L3.25,8 C3.25168352,6.57866905 4.33472599,5.39208772 5.75,5.261 L5.75,4 C5.75,3.58578644 6.08578644,3.25 6.5,3.25 C6.91421356,3.25 7.25,3.58578644 7.25,4 L7.25,5.25 L16.75,5.25 L16.75,4 C16.75,3.58578644 17.0857864,3.25 17.5,3.25 C17.9142136,3.25 18.25,3.58578644 18.25,4 L18.25,5.261 C19.665274,5.39208772 20.7483165,6.57866905 20.75,8 L20.75,18 C20.748897,19.5183259 19.5183259,20.748897 18,20.75 L6,20.75 Z M4.75,18 C4.75055144,18.6901274 5.30987261,19.2494486 6,19.25 L18,19.25 C18.6901274,19.2494486 19.2494486,18.6901274 19.25,18 L19.25,11.25 L4.75,11.25 L4.75,18 Z M19.25,9.75 L19.25,8 C19.2494486,7.30987261 18.6901274,6.75055144 18,6.75 L6,6.75 C5.30987261,6.75055144 4.75055144,7.30987261 4.75,8 L4.75,9.75 L19.25,9.75 Z" id="Shape" fill="#141124" fill-rule="nonzero"></path>
            </g>
        </g>
    </g>
</svg>