<?xml version="1.0" encoding="UTF-8"?>
<svg width="18px" height="18px" viewBox="0 0 18 18" version="1.1" xmlns="http://www.w3.org/2000/svg" xmlns:xlink="http://www.w3.org/1999/xlink">
    <title>search-svgrepo-com</title>
    <g id="Page-1" stroke="none" stroke-width="1" fill="none" fill-rule="evenodd">
        <g id="Desktop-HD" transform="translate(-720.000000, -296.000000)" fill="#000000" fill-rule="nonzero">
            <g id="search-svgrepo-com" transform="translate(720.000000, 296.000000)">
                <path d="M17.7731325,16.7170547 L12.6086689,11.5446621 C13.626806,10.3226336 14.2391638,8.7609476 14.2391638,7.05527638 C14.2391638,3.16398318 11.0482631,0 7.12327083,0 C3.19827851,0 0,3.16767511 0,7.05896831 C0,10.9502615 3.19090071,14.1142447 7.11589302,14.1142447 C8.78327698,14.1142447 10.3178604,13.5419957 11.5351983,12.5857861 L16.7181064,17.7729464 C17.0205964,18.0756845 17.4706425,18.0756845 17.7731325,17.7729464 C18.0756225,17.4702082 18.0756225,17.0197928 17.7731325,16.7170547 Z M1.51245005,7.05896831 C1.51245005,4.00205107 4.02828159,1.51738283 7.11589302,1.51738283 C10.2035045,1.51738283 12.719336,4.00205107 12.719336,7.05896831 C12.719336,10.1158856 10.2035045,12.6005538 7.11589302,12.6005538 C4.02828159,12.6005538 1.51245005,10.1121936 1.51245005,7.05896831 Z" id="Shape"></path>
            </g>
        </g>
    </g>
</svg>